<svg width="179" height="89" viewBox="0 0 179 89" fill="none" xmlns="http://www.w3.org/2000/svg">
<path d="M2.44286 43.0429C2.35714 41.9286 2.25 40.8143 2.12143 39.7C2.03571 38.5429 1.88571 37.4071 1.67143 36.2929C1.67143 35.35 1.97143 34.75 2.57143 34.4929C3.21429 34.2357 3.9 34.1071 4.62857 34.1071H5.91429C6.55714 34.4071 7.00714 34.7714 7.26429 35.2C7.52143 35.6286 7.69286 36.1 7.77857 36.6143C7.86429 37.1286 7.88571 37.6643 7.84286 38.2214C7.84286 38.7786 7.86429 39.3143 7.90714 39.8286C7.95 40.0429 7.97143 40.4071 7.97143 40.9214C7.97143 41.4357 7.97143 41.9714 7.97143 42.5286C8.01429 43.0857 8.05714 43.6 8.1 44.0714C8.18571 44.5429 8.29286 44.8429 8.42143 44.9714L14.0786 34.3643C14.3357 33.8929 14.7 33.5071 15.1714 33.2071C15.6857 32.8643 16.2429 32.7357 16.8429 32.8214C17.7857 32.9071 18.4929 33.1 18.9643 33.4C19.4357 33.6571 19.7571 34.0214 19.9286 34.4929C20.1429 34.9214 20.25 35.4571 20.25 36.1C20.2929 36.7429 20.3357 37.45 20.3786 38.2214C20.3786 38.4786 20.4 38.9714 20.4429 39.7C20.4857 40.3857 20.5286 41.1143 20.5714 41.8857C20.6571 42.6571 20.7214 43.3857 20.7643 44.0714C20.85 44.7571 20.9143 45.2286 20.9571 45.4857H21.2143C21.3 45.1857 21.45 44.6071 21.6643 43.75C21.9214 42.8929 22.2 41.9929 22.5 41.05C22.8 40.1071 23.0786 39.2071 23.3357 38.35C23.5929 37.4929 23.7857 36.8929 23.9143 36.55C23.9571 36.4643 24.0429 36.2929 24.1714 36.0357C24.3 35.7357 24.4286 35.4357 24.5571 35.1357C24.6857 34.7929 24.8143 34.4929 24.9429 34.2357C25.0714 33.9357 25.1571 33.7214 25.2 33.5929C25.5 33.1214 25.8 32.8857 26.1 32.8857C26.4429 32.8429 26.8071 32.8214 27.1929 32.8214C28.2643 32.8214 29.0786 33.1 29.6357 33.6571C30.2357 34.1714 30.6643 34.8357 30.9214 35.65C31.2214 36.4643 31.4357 37.3643 31.5643 38.35C31.6929 39.2929 31.8429 40.1714 32.0143 40.9857C32.0571 40.9857 32.0786 41.0286 32.0786 41.1143C32.0786 41.1571 32.0571 41.2 32.0143 41.2429L35.55 59.95C35.7214 60.1214 35.8071 60.2714 35.8071 60.4C35.85 60.5286 35.8714 60.7 35.8714 60.9143C35.8714 61.3857 35.6357 61.8571 35.1643 62.3286C34.7357 62.7571 34.2857 62.9714 33.8143 62.9714C33.1714 62.9714 32.4214 62.7357 31.5643 62.2643C30.75 61.7929 30.2786 61.1929 30.15 60.4643L27.1929 45.2286L26.8714 44.7143C26.7857 44.9286 26.5929 45.55 26.2929 46.5786C26.0357 47.5643 25.7143 48.8286 25.3286 50.3714C24.9429 51.8714 24.4929 53.5643 23.9786 55.45C23.5071 57.3357 23.0143 59.2643 22.5 61.2357C22.4143 61.6214 22.1571 61.9214 21.7286 62.1357C21.3429 62.3071 21 62.3929 20.7 62.3929C19.8 62.3929 19.0714 62.2857 18.5143 62.0714C17.9571 61.8571 17.5286 61.5357 17.2286 61.1071C16.9286 60.6786 16.7143 60.1643 16.5857 59.5643C16.4571 58.9643 16.35 58.2786 16.2643 57.5071C16.2643 57.3357 16.2214 56.7357 16.1357 55.7071C16.05 54.6357 15.9429 53.4357 15.8143 52.1071C15.7286 50.7357 15.6214 49.3643 15.4929 47.9929C15.3643 46.6214 15.2786 45.5286 15.2357 44.7143C15.2357 44.5429 15.2357 44.4143 15.2357 44.3286C15.2357 44.2429 15.2357 44.1786 15.2357 44.1357C15.2357 44.05 15.2143 43.9643 15.1714 43.8786C15.1286 43.75 15.0429 43.5571 14.9143 43.3L13.05 47.7357L10.0929 58.6L9.45 62.5857C9.40714 62.8429 9.27857 63.0786 9.06429 63.2929C8.89286 63.4643 8.67857 63.6143 8.42143 63.7429C8.16429 63.8286 7.90714 63.8929 7.65 63.9357C7.39286 63.9786 7.17857 64 7.00714 64C6.06429 64 5.25 63.6571 4.56429 62.9714C3.92143 62.2857 3.57857 61.5357 3.53571 60.7214C3.49286 60.4214 3.45 59.8429 3.40714 58.9857C3.36429 58.0857 3.3 57.0357 3.21429 55.8357C3.12857 54.6357 3.04286 53.3714 2.95714 52.0429C2.91429 50.7143 2.85 49.45 2.76429 48.25C2.67857 47.05 2.59286 46 2.50714 45.1C2.46429 44.2 2.44286 43.6 2.44286 43.3V43.0429ZM51.6857 81.6786C51.6 80.7786 51.5357 79.6857 51.4929 78.4C51.4929 77.1143 51.4929 75.7643 51.4929 74.35C51.4929 72.9357 51.4929 71.5 51.4929 70.0429C51.5357 68.5857 51.6 67.2571 51.6857 66.0571V63.7429C51.4714 63.4429 51.2143 63.1429 50.9143 62.8429C50.6143 62.5 50.0786 61.8571 49.3071 60.9143C48.5786 59.9286 47.5286 58.4929 46.1571 56.6071C44.7857 54.6786 42.9429 52 40.6286 48.5714C39.7286 47.6286 39.15 46.8571 38.8929 46.2571C38.6357 45.6143 38.55 45.1 38.6357 44.7143C38.7214 44.3286 38.9357 44.05 39.2786 43.8786C39.6643 43.7071 40.0286 43.6214 40.3714 43.6214C41.2286 43.6214 42 43.8143 42.6857 44.2C43.3714 44.5857 43.9929 45.0786 44.55 45.6786C45.1071 46.2786 45.6 46.9429 46.0286 47.6714C46.5 48.3571 46.95 49.0214 47.3786 49.6643C47.6357 50.05 47.9571 50.5429 48.3429 51.1429C48.7286 51.7429 49.1143 52.3429 49.5 52.9429C49.8857 53.5 50.2071 53.9929 50.4643 54.4214C50.7643 54.85 50.9143 55.0643 50.9143 55.0643L51.6857 55.9V49.15C51.6857 47.0071 51.6429 44.9286 51.5571 42.9143C51.4714 40.8571 51.4286 38.7786 51.4286 36.6786C51.4286 36.0786 51.6429 35.5857 52.0714 35.2C52.5 34.8143 53.0143 34.6429 53.6143 34.6857C54.3429 34.7714 54.8786 34.9 55.2214 35.0714C55.6071 35.2429 55.9929 35.5857 56.3786 36.1C56.7214 36.5714 56.8714 37.1286 56.8286 37.7714C56.8286 38.4143 56.85 39.0357 56.8929 39.6357C57.0643 43.7071 57.1929 47.7786 57.2786 51.85C57.4071 55.8786 57.4714 59.9286 57.4714 64C57.4286 64.3857 57.4071 65.1571 57.4071 66.3143C57.4071 67.5143 57.4071 68.8643 57.4071 70.3643C57.45 71.8643 57.4714 73.4286 57.4714 75.0571C57.5143 76.6857 57.5357 78.1643 57.5357 79.4929C57.5786 80.8643 57.6 81.9786 57.6 82.8357C57.6429 83.7357 57.6857 84.1643 57.7286 84.1214C57.7286 84.7643 57.4929 85.2357 57.0214 85.5357C56.5929 85.8357 56.0571 85.9857 55.4143 85.9857C54.5571 85.9857 53.9143 85.8571 53.4857 85.6C53.1 85.3857 52.8 85.0643 52.5857 84.6357C52.3714 84.25 52.2214 83.8 52.1357 83.2857C52.05 82.7714 51.9 82.2357 51.6857 81.6786Z" fill="black"/>
<path d="M62.8993 30.6933H69.0872V19.3707H76.8549V30.6933H83.0428V38.2636H76.8549V64.2H69.0872V38.2636H62.8993V30.6933ZM101.004 30.6933C102.935 30.6933 104.646 31.0005 106.138 31.6149C107.674 32.1854 108.969 32.9973 110.022 34.0505C111.119 35.1038 111.953 36.3765 112.524 37.8686C113.094 39.3607 113.38 41.0503 113.38 42.9374V51.9559C113.38 53.7991 113.094 55.4887 112.524 57.0247C111.953 58.5168 111.119 59.8114 110.022 60.9086C108.969 61.9618 107.674 62.7737 106.138 63.3442C104.646 63.9148 102.935 64.2 101.004 64.2H98.3048C96.4177 64.2 94.7061 63.9148 93.1701 63.3442C91.6341 62.7737 90.3176 61.9618 89.2204 60.9086C88.1672 59.8114 87.3553 58.5168 86.7848 57.0247C86.2581 55.4887 85.9948 53.7991 85.9948 51.9559V42.9374C85.9948 41.0503 86.2581 39.3607 86.7848 37.8686C87.3553 36.3765 88.1672 35.1038 89.2204 34.0505C90.3176 32.9973 91.6341 32.1854 93.1701 31.6149C94.7061 31.0005 96.4177 30.6933 98.3048 30.6933H101.004ZM98.3048 38.2636C96.9443 38.2636 95.7813 38.7244 94.8158 39.646C93.8942 40.5237 93.4334 41.6866 93.4334 43.1349V51.6926C93.4334 53.1408 93.8942 54.3257 94.8158 55.2473C95.7813 56.1689 96.9443 56.6297 98.3048 56.6297H101.004C102.408 56.6297 103.549 56.1689 104.427 55.2473C105.348 54.3257 105.809 53.1408 105.809 51.6926V43.1349C105.809 41.6866 105.348 40.5237 104.427 39.646C103.549 38.7244 102.408 38.2636 101.004 38.2636H98.3048ZM129.744 64.2C127.813 64.2 126.079 63.9148 124.543 63.3442C123.051 62.7737 121.756 61.9618 120.659 60.9086C119.606 59.8114 118.794 58.5168 118.224 57.0247C117.653 55.4887 117.368 53.7991 117.368 51.9559V42.9374C117.368 41.0503 117.653 39.3607 118.224 37.8686C118.794 36.3765 119.606 35.1038 120.659 34.0505C121.756 32.9973 123.051 32.1854 124.543 31.6149C126.079 31.0005 127.813 30.6933 129.744 30.6933H132.377C134.22 30.6933 135.888 30.9566 137.38 31.4832V19.3707H144.752V64.2H129.744ZM137.38 56.6297V43.1349C137.38 41.6866 136.897 40.5237 135.931 39.646C134.966 38.7244 133.781 38.2636 132.377 38.2636H129.744C128.339 38.2636 127.132 38.7244 126.123 39.646C125.158 40.5237 124.675 41.6866 124.675 43.1349V51.6926C124.675 53.1408 125.158 54.3257 126.123 55.2473C127.132 56.1689 128.339 56.6297 129.744 56.6297H137.38ZM163.618 30.6933C165.549 30.6933 167.261 31.0005 168.753 31.6149C170.289 32.1854 171.583 32.9973 172.637 34.0505C173.734 35.1038 174.568 36.3765 175.138 37.8686C175.709 39.3607 175.994 41.0503 175.994 42.9374V51.9559C175.994 53.7991 175.709 55.4887 175.138 57.0247C174.568 58.5168 173.734 59.8114 172.637 60.9086C171.583 61.9618 170.289 62.7737 168.753 63.3442C167.261 63.9148 165.549 64.2 163.618 64.2H160.919C159.032 64.2 157.32 63.9148 155.784 63.3442C154.248 62.7737 152.932 61.9618 151.835 60.9086C150.781 59.8114 149.97 58.5168 149.399 57.0247C148.872 55.4887 148.609 53.7991 148.609 51.9559V42.9374C148.609 41.0503 148.872 39.3607 149.399 37.8686C149.97 36.3765 150.781 35.1038 151.835 34.0505C152.932 32.9973 154.248 32.1854 155.784 31.6149C157.32 31.0005 159.032 30.6933 160.919 30.6933H163.618ZM160.919 38.2636C159.559 38.2636 158.396 38.7244 157.43 39.646C156.509 40.5237 156.048 41.6866 156.048 43.1349V51.6926C156.048 53.1408 156.509 54.3257 157.43 55.2473C158.396 56.1689 159.559 56.6297 160.919 56.6297H163.618C165.022 56.6297 166.163 56.1689 167.041 55.2473C167.963 54.3257 168.424 53.1408 168.424 51.6926V43.1349C168.424 41.6866 167.963 40.5237 167.041 39.646C166.163 38.7244 165.022 38.2636 163.618 38.2636H160.919Z" fill="#065BFF"/>
</svg>
