<svg width="218" height="96" viewBox="0 0 218 96" fill="none" xmlns="http://www.w3.org/2000/svg">
<rect width="217.143" height="96" rx="4.57143" fill="white"/>
<path d="M22.1 46.7C22.0142 45.5857 21.9071 44.4714 21.7785 43.3571C21.6928 42.2 21.5428 41.0643 21.3285 39.95C21.3285 39.0071 21.6285 38.4071 22.2285 38.15C22.8714 37.8928 23.5571 37.7643 24.2857 37.7643H25.5714C26.2142 38.0643 26.6642 38.4286 26.9214 38.8571C27.1785 39.2857 27.35 39.7571 27.4357 40.2714C27.5214 40.7857 27.5428 41.3214 27.5 41.8786C27.5 42.4357 27.5214 42.9714 27.5642 43.4857C27.6071 43.7 27.6285 44.0643 27.6285 44.5786C27.6285 45.0928 27.6285 45.6286 27.6285 46.1857C27.6714 46.7428 27.7142 47.2571 27.7571 47.7286C27.8428 48.2 27.95 48.5 28.0785 48.6286L33.7357 38.0214C33.9928 37.55 34.3571 37.1643 34.8285 36.8643C35.3428 36.5214 35.9 36.3928 36.5 36.4786C37.4428 36.5643 38.15 36.7571 38.6214 37.0571C39.0928 37.3143 39.4142 37.6786 39.5857 38.15C39.8 38.5786 39.9071 39.1143 39.9071 39.7571C39.95 40.4 39.9928 41.1071 40.0357 41.8786C40.0357 42.1357 40.0571 42.6286 40.1 43.3571C40.1428 44.0428 40.1857 44.7714 40.2285 45.5428C40.3142 46.3143 40.3785 47.0428 40.4214 47.7286C40.5071 48.4143 40.5714 48.8857 40.6142 49.1428H40.8714C40.9571 48.8428 41.1071 48.2643 41.3214 47.4071C41.5785 46.55 41.8571 45.65 42.1571 44.7071C42.4571 43.7643 42.7357 42.8643 42.9928 42.0071C43.25 41.15 43.4428 40.55 43.5714 40.2071C43.6142 40.1214 43.7 39.95 43.8285 39.6928C43.9571 39.3928 44.0857 39.0928 44.2142 38.7928C44.3428 38.45 44.4714 38.15 44.6 37.8928C44.7285 37.5928 44.8142 37.3786 44.8571 37.25C45.1571 36.7786 45.4571 36.5428 45.7571 36.5428C46.1 36.5 46.4642 36.4786 46.85 36.4786C47.9214 36.4786 48.7357 36.7571 49.2928 37.3143C49.8928 37.8286 50.3214 38.4928 50.5785 39.3071C50.8785 40.1214 51.0928 41.0214 51.2214 42.0071C51.35 42.95 51.5 43.8286 51.6714 44.6428C51.7142 44.6428 51.7357 44.6857 51.7357 44.7714C51.7357 44.8143 51.7142 44.8571 51.6714 44.9L55.2071 63.6071C55.3785 63.7786 55.4642 63.9286 55.4642 64.0571C55.5071 64.1857 55.5285 64.3571 55.5285 64.5714C55.5285 65.0428 55.2928 65.5143 54.8214 65.9857C54.3928 66.4143 53.9428 66.6286 53.4714 66.6286C52.8285 66.6286 52.0785 66.3928 51.2214 65.9214C50.4071 65.45 49.9357 64.85 49.8071 64.1214L46.85 48.8857L46.5285 48.3714C46.4428 48.5857 46.25 49.2071 45.95 50.2357C45.6928 51.2214 45.3714 52.4857 44.9857 54.0286C44.6 55.5286 44.15 57.2214 43.6357 59.1071C43.1642 60.9928 42.6714 62.9214 42.1571 64.8928C42.0714 65.2786 41.8142 65.5786 41.3857 65.7928C41 65.9643 40.6571 66.05 40.3571 66.05C39.4571 66.05 38.7285 65.9428 38.1714 65.7286C37.6142 65.5143 37.1857 65.1928 36.8857 64.7643C36.5857 64.3357 36.3714 63.8214 36.2428 63.2214C36.1142 62.6214 36.0071 61.9357 35.9214 61.1643C35.9214 60.9928 35.8785 60.3928 35.7928 59.3643C35.7071 58.2928 35.6 57.0928 35.4714 55.7643C35.3857 54.3928 35.2785 53.0214 35.15 51.65C35.0214 50.2786 34.9357 49.1857 34.8928 48.3714C34.8928 48.2 34.8928 48.0714 34.8928 47.9857C34.8928 47.9 34.8928 47.8357 34.8928 47.7928C34.8928 47.7071 34.8714 47.6214 34.8285 47.5357C34.7857 47.4071 34.7 47.2143 34.5714 46.9571L32.7071 51.3928L29.75 62.2571L29.1071 66.2428C29.0642 66.5 28.9357 66.7357 28.7214 66.95C28.55 67.1214 28.3357 67.2714 28.0785 67.4C27.8214 67.4857 27.5642 67.55 27.3071 67.5928C27.05 67.6357 26.8357 67.6571 26.6642 67.6571C25.7214 67.6571 24.9071 67.3143 24.2214 66.6286C23.5785 65.9428 23.2357 65.1928 23.1928 64.3786C23.15 64.0786 23.1071 63.5 23.0642 62.6428C23.0214 61.7428 22.9571 60.6928 22.8714 59.4928C22.7857 58.2928 22.7 57.0286 22.6142 55.7C22.5714 54.3714 22.5071 53.1071 22.4214 51.9071C22.3357 50.7071 22.25 49.6571 22.1642 48.7571C22.1214 47.8571 22.1 47.2571 22.1 46.9571V46.7ZM71.3428 85.3357C71.2571 84.4357 71.1928 83.3429 71.15 82.0571C71.15 80.7714 71.15 79.4214 71.15 78.0071C71.15 76.5928 71.15 75.1571 71.15 73.7C71.1928 72.2428 71.2571 70.9143 71.3428 69.7143V67.4C71.1285 67.1 70.8714 66.8 70.5714 66.5C70.2714 66.1571 69.7357 65.5143 68.9643 64.5714C68.2357 63.5857 67.1857 62.15 65.8143 60.2643C64.4428 58.3357 62.6 55.6571 60.2857 52.2286C59.3857 51.2857 58.8071 50.5143 58.55 49.9143C58.2928 49.2714 58.2071 48.7571 58.2928 48.3714C58.3785 47.9857 58.5928 47.7071 58.9357 47.5357C59.3214 47.3643 59.6857 47.2786 60.0285 47.2786C60.8857 47.2786 61.6571 47.4714 62.3428 47.8571C63.0285 48.2428 63.65 48.7357 64.2071 49.3357C64.7643 49.9357 65.2571 50.6 65.6857 51.3286C66.1571 52.0143 66.6071 52.6786 67.0357 53.3214C67.2928 53.7071 67.6143 54.2 68 54.8C68.3857 55.4 68.7714 56 69.1571 56.6C69.5428 57.1571 69.8643 57.65 70.1214 58.0786C70.4214 58.5071 70.5714 58.7214 70.5714 58.7214L71.3428 59.5571V52.8071C71.3428 50.6643 71.3 48.5857 71.2143 46.5714C71.1285 44.5143 71.0857 42.4357 71.0857 40.3357C71.0857 39.7357 71.3 39.2428 71.7285 38.8571C72.1571 38.4714 72.6714 38.3 73.2714 38.3428C74 38.4286 74.5357 38.5571 74.8785 38.7286C75.2643 38.9 75.65 39.2428 76.0357 39.7571C76.3785 40.2286 76.5285 40.7857 76.4857 41.4286C76.4857 42.0714 76.5071 42.6928 76.55 43.2928C76.7214 47.3643 76.85 51.4357 76.9357 55.5071C77.0643 59.5357 77.1285 63.5857 77.1285 67.6571C77.0857 68.0428 77.0643 68.8143 77.0643 69.9714C77.0643 71.1714 77.0643 72.5214 77.0643 74.0214C77.1071 75.5214 77.1285 77.0857 77.1285 78.7143C77.1714 80.3429 77.1928 81.8214 77.1928 83.15C77.2357 84.5214 77.2571 85.6357 77.2571 86.4929C77.3 87.3929 77.3428 87.8214 77.3857 87.7786C77.3857 88.4214 77.15 88.8929 76.6785 89.1929C76.25 89.4929 75.7143 89.6429 75.0714 89.6429C74.2143 89.6429 73.5714 89.5143 73.1428 89.2571C72.7571 89.0429 72.4571 88.7214 72.2428 88.2929C72.0285 87.9071 71.8785 87.4571 71.7928 86.9429C71.7071 86.4286 71.5571 85.8929 71.3428 85.3357Z" fill="black"/>
<path d="M82.5564 34.3504H88.7443V23.0279H96.512V34.3504H102.7V41.9207H96.512V67.8571H88.7443V41.9207H82.5564V34.3504ZM120.661 34.3504C122.592 34.3504 124.303 34.6576 125.795 35.272C127.331 35.8425 128.626 36.6544 129.679 37.7077C130.776 38.7609 131.61 40.0336 132.181 41.5257C132.751 43.0178 133.037 44.7074 133.037 46.5945V55.613C133.037 57.4562 132.751 59.1458 132.181 60.6818C131.61 62.1739 130.776 63.4686 129.679 64.5657C128.626 65.619 127.331 66.4309 125.795 67.0014C124.303 67.5719 122.592 67.8571 120.661 67.8571H117.962C116.075 67.8571 114.363 67.5719 112.827 67.0014C111.291 66.4309 109.975 65.619 108.878 64.5657C107.824 63.4686 107.012 62.1739 106.442 60.6818C105.915 59.1458 105.652 57.4562 105.652 55.613V46.5945C105.652 44.7074 105.915 43.0178 106.442 41.5257C107.012 40.0336 107.824 38.7609 108.878 37.7077C109.975 36.6544 111.291 35.8425 112.827 35.272C114.363 34.6576 116.075 34.3504 117.962 34.3504H120.661ZM117.962 41.9207C116.601 41.9207 115.438 42.3815 114.473 43.3031C113.551 44.1808 113.091 45.3438 113.091 46.792V55.3497C113.091 56.7979 113.551 57.9829 114.473 58.9045C115.438 59.8261 116.601 60.2869 117.962 60.2869H120.661C122.065 60.2869 123.206 59.8261 124.084 58.9045C125.006 57.9829 125.466 56.7979 125.466 55.3497V46.792C125.466 45.3438 125.006 44.1808 124.084 43.3031C123.206 42.3815 122.065 41.9207 120.661 41.9207H117.962ZM149.401 67.8571C147.47 67.8571 145.736 67.5719 144.2 67.0014C142.708 66.4309 141.413 65.619 140.316 64.5657C139.263 63.4686 138.451 62.1739 137.881 60.6818C137.31 59.1458 137.025 57.4562 137.025 55.613V46.5945C137.025 44.7074 137.31 43.0178 137.881 41.5257C138.451 40.0336 139.263 38.7609 140.316 37.7077C141.413 36.6544 142.708 35.8425 144.2 35.272C145.736 34.6576 147.47 34.3504 149.401 34.3504H152.034C153.877 34.3504 155.545 34.6137 157.037 35.1403V23.0279H164.41V67.8571H149.401ZM157.037 60.2869V46.792C157.037 45.3438 156.554 44.1808 155.589 43.3031C154.623 42.3815 153.438 41.9207 152.034 41.9207H149.401C147.996 41.9207 146.789 42.3815 145.78 43.3031C144.815 44.1808 144.332 45.3438 144.332 46.792V55.3497C144.332 56.7979 144.815 57.9829 145.78 58.9045C146.789 59.8261 147.996 60.2869 149.401 60.2869H157.037ZM183.275 34.3504C185.206 34.3504 186.918 34.6576 188.41 35.272C189.946 35.8425 191.24 36.6544 192.294 37.7077C193.391 38.7609 194.225 40.0336 194.795 41.5257C195.366 43.0178 195.651 44.7074 195.651 46.5945V55.613C195.651 57.4562 195.366 59.1458 194.795 60.6818C194.225 62.1739 193.391 63.4686 192.294 64.5657C191.24 65.619 189.946 66.4309 188.41 67.0014C186.918 67.5719 185.206 67.8571 183.275 67.8571H180.576C178.689 67.8571 176.978 67.5719 175.442 67.0014C173.906 66.4309 172.589 65.619 171.492 64.5657C170.439 63.4686 169.627 62.1739 169.056 60.6818C168.53 59.1458 168.266 57.4562 168.266 55.613V46.5945C168.266 44.7074 168.53 43.0178 169.056 41.5257C169.627 40.0336 170.439 38.7609 171.492 37.7077C172.589 36.6544 173.906 35.8425 175.442 35.272C176.978 34.6576 178.689 34.3504 180.576 34.3504H183.275ZM180.576 41.9207C179.216 41.9207 178.053 42.3815 177.087 43.3031C176.166 44.1808 175.705 45.3438 175.705 46.792V55.3497C175.705 56.7979 176.166 57.9829 177.087 58.9045C178.053 59.8261 179.216 60.2869 180.576 60.2869H183.275C184.679 60.2869 185.82 59.8261 186.698 58.9045C187.62 57.9829 188.081 56.7979 188.081 55.3497V46.792C188.081 45.3438 187.62 44.1808 186.698 43.3031C185.82 42.3815 184.679 41.9207 183.275 41.9207H180.576Z" fill="#065BFF"/>
</svg>
